PathFileType	4	(X/Y/Z)	C:/Users/beibeiliu/ov580/test_trc\sequence.2_training_dense_right.trc
DataRate	CameraRate	NumFrames	NumMarkers	Units	OrigDataRate	OrigDataStartFrame	OrigNumFrames
120	120	25	19	mm	120	196	313
Frame#	Time	ThumbCMC			ThumbMCP			ThumbIP			ThumbTip			IndexMCP			IndexPIP			IndexTip			MiddleMCP			MiddlePIP			MiddleTip			RingMCP			RingPIP			RingTip			PinkyMCP			PinkyPIP			PinkyTip			BackHand1			BackHand2			BackHand3	
		X0	Y0	Z0	X1	Y1	Z1	X2	Y2	Z2	X3	Y3	Z3	X4	Y4	Z4	X5	Y5	Z5	X6	Y6	Z6	X7	Y7	Z7	X8	Y8	Z8	X9	Y9	Z9	X10	Y10	Z10	X11	Y11	Z11	X12	Y12	Z12	X13	Y13	Z13	X14	Y14	Z14	X15	Y15	Z15	X16	Y16	Z16	X17	Y17	Z17	X18	Y18	Z18	
195	1.625	285.76	-23.1103	30.1873	302.452	-2.87376	7.66796	302.298	10.724	-9.30589	290.67	24.3441	-24.7585	293.016	-18.5579	-30.254	309.632	2.40895	-33.1796	317.426	21.9426	-11.0258	280.586	-8.67102	-37.4211	296.187	14.8791	-42.2227	305.645	37.2422	-28.0577	266.084	9.73172	-29.6646	283.077	25.2958	-20.0329	283.728	19.7296	8.67273	255.241	18.3775	-21.2487	270.689	30.9476	-8.52549	274.17	12.1609	13.4369	242.634	-19.6185	7.0516	234.871	-21.0712	31.6462	257.15	-35.6622	21.9748	
196	1.63333	289.262	-24.8717	33.9121	306.254	-5.38823	10.2101	305.773	8.36231	-7.18952	299.203	24.2825	-24.0843	298.516	-22.165	-29.1528	313.173	-0.743379	-30.6223	321.955	18.479	-11.2455	284.609	-9.00836	-36.072	300.836	13.491	-40.5126	314.099	35.835	-21.944	272.368	3.91027	-28.5768	288.093	24.2399	-17.3456	286.627	18.746	10.428	260.224	13.1116	-18.8642	277.773	26.6188	-4.46946	278.013	16.5392	16.5335	241.083	-19.958	3.96069	236.406	-21.3482	35.2612	259.79	-36.9263	22.0401	
197	1.64167	290.565	-25.8997	37.4068	310.288	-6.68466	11.1268	310.732	6.50958	-8.05214	301.998	21.0231	-19.9397	299.511	-25.3532	-25.115	316.172	-0.530422	-28.2546	320.274	16.9862	-12.0851	285.922	-15.6003	-31.7932	302.786	6.52558	-39.8418	316.045	33.735	-20.645	275.858	0.655766	-26.7811	290.996	21.6338	-14.9472	291.838	14.9371	9.83669	258.145	13.5596	-18.7363	280.395	24.2857	-5.74636	280.224	11.3985	13.3947	246.594	-21.435	5.75215	241.159	-24.9634	37.4461	263.58	-42.1957	24.3382	
198	1.65	290.177	-26.1424	38.4708	308.71	-8.003	18.4952	311.212	4.95075	-4.95386	304.124	21.4904	-24.2603	301.881	-30.1571	-22.0216	316.309	-2.58696	-27.405	324.501	16.7554	-6.37281	285.365	-14.1103	-32.5863	307.739	5.60278	-37.9918	318.481	30.0176	-22.9192	274.221	-0.458217	-26.1118	293.467	18.7721	-15.5095	292.742	13.4321	8.12541	261.227	9.98207	-20.2633	279.985	23.453	-7.58782	281.566	14.2807	13.0459	247.172	-23.7802	9.06209	241.954	-28.5953	32.9908	262.497	-40.2736	26.5067	
199	1.65833	290.602	-24.6188	36.9864	310.686	-5.21139	14.9862	308.91	5.13985	-6.34118	302.795	18.3389	-22.1185	303.699	-25.906	-21.9043	320.153	-6.57732	-25.4621	321.565	16.0366	-8.71695	289.319	-17.2172	-31.9965	306.389	2.21172	-38.2218	314.456	31.6302	-23.436	275.213	-3.20787	-27.0683	294.141	15.2427	-18.0853	288.767	14.8528	9.97061	258.172	6.06866	-20.569	279.868	21.8233	-11.6106	281.738	12.7884	10.85	246.954	-25.7137	5.771	240.454	-28.1033	36.0344	267.02	-44.6228	28.991	
200	1.66667	289.19	-20.4184	42.8179	306.32	-1.60392	23.0823	308.684	7.26587	-3.38538	304.247	18.1323	-21.5771	307.423	-28.4446	-15.6132	319.152	-2.67154	-23.9954	319.371	19.892	-9.56305	290.321	-18.0576	-29.9499	303.495	3.09835	-38.7251	310.435	31.7906	-27.549	274.612	-6.56354	-28.0968	287.977	16.9777	-19.8432	283.939	17.3766	9.17153	255.916	1.27165	-23.0969	276.666	18.0593	-15.1149	278.632	14.1802	9.45631	251.686	-33.2639	10.0317	237.567	-30.203	37.5151	266.764	-42.8612	30.376	
201	1.675	287.828	-14.2112	50.0229	304.793	4.12933	23.4339	307.363	10.38	3.5668	303.495	17.7378	-19.8894	310.853	-25.5591	-9.09501	317.985	0.475605	-22.9377	316.231	25.1201	-13.1085	292.019	-20.3373	-25.5475	307.382	1.78161	-36.3842	306.112	34.8511	-28.5446	273.497	-12.8417	-25.7237	282.509	13.7089	-25.7791	282.82	19.4297	3.6462	256.239	-8.12294	-22.1986	269.044	14.5484	-21.1934	271.28	13.7375	6.39882	250.858	-35.2546	10.5131	242.719	-36.4863	37.4091	271.992	-39.5595	38.7188	
202	1.68333	282.935	-5.85514	49.8751	295.798	12.8174	27.5575	303.169	17.0151	2.96504	299.077	17.2966	-18.738	316.223	-16.9781	-4.47255	317.349	5.63457	-19.213	309.242	31.4307	-17.4519	298.962	-20.584	-16.1146	305.043	4.05409	-35.1269	301.829	31.968	-31.4083	281.914	-16.9597	-22.7709	282.396	11.4253	-26.014	275.285	22.257	-3.94846	259.133	-14.6783	-23.1279	268.398	8.79522	-20.9242	263.281	14.4948	4.83088	255.801	-40.5407	17.8346	242.569	-37.4713	37.9266	273.264	-35.8838	42.3653	
203	1.69167	279.644	3.31646	52.6543	289.173	21.8905	28.9069	295.337	22.1177	4.2133	297.275	23.1122	-18.4734	315.789	-7.48138	1.83356	317.897	12.4813	-13.8211	304.627	39.998	-16.6764	303.185	-15.1824	-14.3804	306.043	6.35476	-29.9249	293.036	34.2391	-33.9727	283.023	-18.1451	-19.7537	282.462	11.1106	-25.6465	267.495	23.739	-6.36527	266.459	-17.3499	-21.0437	266.723	6.35092	-17.9483	259.227	11.9356	3.10865	261.975	-40.3065	21.9289	241.581	-40.1137	43.654	276.406	-32.2182	47.5365	
204	1.7	267.999	9.35902	54.656	278.878	24.6145	27.3959	289.86	29.2373	5.93333	292.537	28.7835	-14.862	314.353	-0.329501	6.67542	314.528	21.8067	-9.06679	294.963	42.5354	-16.3259	304.38	-10.1975	-7.67807	305.269	9.7361	-26.6175	293.61	37.1815	-32.5757	289.784	-13.5636	-15.409	280.259	11.6336	-25.1699	266.564	26.2553	-6.57866	270.016	-20.2732	-15.7685	263.79	4.32274	-19.6401	257.312	11.1757	2.6466	264.314	-36.3103	26.2686	246.867	-38.3756	45.1056	273.816	-24.5693	52.5989	
205	1.70833	261.732	14.4134	53.1045	271.345	33.7684	28.8805	282.707	34.4507	6.81971	289.084	28.5778	-14.8146	312.42	11.6869	13.8225	308.812	32.0145	-4.44683	291.442	45.7133	-11.2746	305.289	-3.75799	1.47664	306.835	15.8222	-19.9636	287.295	40.7342	-32.5172	292.996	-10.596	-11.8607	285.228	12.5964	-20.4654	265.38	25.3949	-6.6784	276.195	-20.1325	-9.20237	270.499	3.38519	-19.0922	257.187	12.0336	3.09947	269.418	-36.3016	29.2915	249.337	-35.4464	50.8914	272.949	-19.7022	55.8057	
206	1.71667	255.186	19.2001	52.7707	264.685	36.6878	24.672	278.112	39.7093	3.09582	285.571	33.4961	-16.1265	307.852	23.8857	19.4825	301.436	41.6675	1.28394	276.445	50.8855	-8.5885	306.829	7.25033	8.7969	306.563	25.2007	-15.4341	285.399	45.6993	-28.7689	295.206	-4.05523	-3.03411	280.711	19.2452	-17.6975	256.332	23.5017	-3.39979	281.759	-15.2348	-7.09742	273.628	8.76135	-15.1992	257.902	14.5237	1.62608	274.335	-26.5003	36.1062	252.758	-33.2175	48.1704	270.034	-11.4017	56.8728	
207	1.725	243.828	22.0684	51.7497	256.076	37.8283	23.3083	270.345	45.1727	2.97892	279.907	38.029	-15.8059	299.191	39.0077	24.4554	289.721	50.5436	1.63234	264.512	53.101	-5.1074	304.922	23.5162	10.1832	302.183	36.7568	-10.7526	276.946	52.1861	-26.2952	294.461	6.38114	2.02384	274.999	24.879	-13.4485	254.258	23.084	-0.75286	284.107	-7.91523	-2.88529	268.733	11.3933	-14.7367	255.711	16.9101	5.21583	276.085	-20.0653	39.9845	252.004	-32.2503	52.0218	264.739	-5.09817	62.1613	
208	1.73333	235.027	25.0494	48.0951	242.492	42.3014	20.0824	261.036	46.1973	0.730132	276.852	40.2198	-18.089	286.37	50.7627	27.4632	277.333	60.958	4.37662	246.226	52.379	-6.3372	296.83	37.4227	14.3407	293.336	47.3811	-10.5439	268.391	52.9044	-27.9949	290.876	20.1251	5.24238	273.16	30.5235	-10.2509	248.981	20.7928	3.28201	284.091	4.84154	-3.73997	266.272	13.7769	-13.558	250.209	15.3032	7.61793	274.301	-9.053	42.1697	256.155	-23.3229	53.9085	262.394	4.36776	60.3591	
209	1.74167	223.129	25.0631	44.433	233.233	40.6046	14.3921	248.045	45.4527	-2.54679	266.742	42.1202	-20.6676	271.296	57.5688	26.9624	261.659	63.55	-0.520574	238.816	51.9769	-9.55239	285.411	43.6352	14.9061	280.443	54.9531	-12.6765	253.939	55.5021	-28.4417	282.613	29.2215	3.98318	257.162	29.5061	-11.959	242.932	15.2277	8.30404	279.605	12.5693	-1.81382	256.521	18.4496	-9.53118	243.918	11.5337	9.8682	274.1	-3.0071	40.3723	254.446	-20.2663	51.6712	254.56	8.38613	58.2536	
210	1.75	217.031	18.2621	40.8042	225.019	36.1207	10.4999	239.071	43.3689	-7.83089	251.131	43.0391	-22.8253	256.069	64.1158	20.288	248.42	65.8597	-4.43297	221.771	47.664	-12.2005	273.722	53.0945	8.43778	263.518	63.1733	-14.8942	242.863	53.3824	-32.3366	273.837	33.6884	3.04597	249.681	33.3439	-12.7089	235.958	18.8957	5.43776	275.018	15.0231	-0.639698	251.741	18.7514	-11.5887	240.492	10.4774	9.07316	265.369	5.40612	42.1678	250.747	-16.4278	55.2439	244.763	12.5942	59.3455	
211	1.75833	205.563	18.4331	35.5957	207.075	33.2323	5.07728	222.695	44.542	-13.95	241.79	45.1783	-29.9276	239.445	66.6536	13.1179	230.413	65.9141	-11.4146	210.017	42.0346	-17.3532	257.609	57.9163	8.46363	250.947	63.3729	-18.7504	230.961	51.2244	-38.4646	260.862	41.5453	-2.57872	242.466	31.4599	-19.7861	230.898	14.2178	-1.06293	267.074	21.6487	-5.68757	247.77	21.1135	-16.1416	234.004	7.75766	5.92937	259.917	13.5099	40.3159	248.432	-13.0551	50.7028	238.475	16.7194	55.5307	
212	1.76667	197.08	14.8211	30.8868	199.85	26.1455	2.46309	209.561	41.0279	-18.284	230.278	45.0163	-33.2013	222.4	66.4934	8.33144	215.457	64.141	-15.9205	199.476	37.4896	-24.9221	243.181	61.8304	-0.255135	234.388	65.2094	-23.5465	220.171	47.7684	-45.0014	252.754	43.8593	-9.45826	231.967	33.6114	-24.3672	222.096	13.5815	-8.26272	258.582	26.6481	-10.4602	237.787	19.9883	-20.6606	228.217	7.08387	0.0339999	251.625	16.9459	38.2716	242.268	-4.84816	48.6058	226.273	18.3468	51.7261	
213	1.775	189.792	6.10285	27.6065	188.277	24.0169	-3.63415	199.408	36.4369	-22.0903	219.135	44.1539	-35.7555	205.463	61.6984	5.41032	199.982	60.5647	-22.4955	189.267	31.9973	-33.7069	226.487	60.369	-1.96409	219.758	63.395	-31.5468	209.058	39.6215	-53.2976	236.037	48.3171	-11.0676	224.47	35.5469	-30.1937	211.258	11.8473	-15.893	248.992	31.0434	-11.0017	232.221	20.1455	-26.1344	219.109	9.36278	-8.92052	242.457	18.0093	35.7568	238.043	-5.88619	47.3685	214.844	14.6194	49.3216	
214	1.78333	181.261	-2.0508	24.3557	179.064	11.9864	-4.24791	185.382	29.9707	-26.0086	198.723	38.1057	-40.9746	190.511	56.9523	-2.00862	188.159	54.3708	-28.7869	180.338	28.5294	-42.0648	209.066	58.1016	-8.76371	207.543	58.9136	-36.1178	195.307	38.0272	-58.2348	223.396	48.2454	-15.3653	213.022	34.4232	-37.8607	204.68	9.87134	-31.5301	240.305	32.2828	-16.7651	221.784	21.296	-31.2685	210.275	5.30233	-16.9948	234.999	22.8453	28.8632	235.11	-1.09633	43.624	209.037	12.3307	42.8614	
215	1.79167	177.194	-6.40551	21.0291	171.371	7.75022	-8.77902	174.952	20.3736	-27.0908	184.765	32.4668	-45.2653	181.117	50.9614	-9.1071	175.124	47.3803	-35.7304	172.808	23.5903	-49.6766	195.868	53.8794	-16.0263	193.419	53.4255	-41.673	187.858	30.3453	-64.7144	216.922	44.0121	-20.9277	202.268	32.2258	-43.4987	194.996	10.0207	-42.6037	229.717	32.5319	-21.0635	218.32	20.361	-38.6711	203.221	2.3239	-31.0065	224.947	19.9191	25.7893	227.117	-2.03432	39.9464	199.119	12.8519	40.1635	
216	1.8	171.542	-10.7765	18.4819	167.073	-0.096136	-11.3496	170.68	15.0263	-31.9765	176.341	26.4749	-50.8084	171.217	44.5678	-12.4934	167.227	39.9157	-39.129	167.271	16.5174	-55.4957	189.388	47.5018	-18.0937	184.422	44.3994	-50.336	175.191	25.1681	-67.8779	206.162	41.4118	-26.7971	198.146	30.8414	-48.4572	186.642	4.04311	-51.4277	223.265	28.3159	-26.1399	207.719	17.6173	-42.3636	197.61	-5.46827	-36.5536	218.563	21.3067	20.1356	225.461	-0.20483	34.4236	198.166	7.23001	35.0445	
217	1.80833	171.048	-16.2599	15.8707	161.23	-7.85682	-14.9979	163.442	7.73569	-37.9512	171.652	15.2103	-53.3234	163.683	38.1849	-17.6879	158.653	29.8962	-44.5863	160.704	4.78793	-58.5852	185.068	41.8731	-29.041	178.948	36.9477	-55.2533	172.098	13.2094	-74.9167	201.259	35.1832	-33.2758	193.685	23.4405	-56.2998	181.148	1.53338	-61.9436	219.397	23.086	-32.0533	206.355	12.5986	-49.1719	190.678	-5.75702	-47.0325	217.101	14.5041	13.4005	222.619	-1.7295	29.5593	194.39	6.36097	29.8508	
218	1.81667	169.913	-19.4926	13.0792	160.36	-12.1634	-19.9087	161.081	0.806961	-43.1555	166.027	8.34847	-60.7723	159.944	31.0431	-24.3517	154.837	19.9494	-50.3388	160.182	-6.44173	-62.1777	178.023	35.9925	-33.533	173.836	28.7932	-62.6971	168.26	4.6978	-80.7259	196.839	29.2073	-40.4096	191.509	20.4872	-61.5424	179.883	-1.87669	-70.9019	213.353	20.1922	-35.7656	206.27	9.52364	-55.8699	186.65	-11.6606	-53.7508	213.66	13.5819	11.2041	218.042	-4.08069	27.9642	193.415	5.82923	24.9933	
219	1.825	169.747	-23.9465	9.66345	156.5	-19.7911	-23.5375	159.098	-6.06017	-46.6107	165.17	0.517638	-64.6772	159.423	24.3592	-30.0593	154.688	10.8764	-56.5815	157.503	-13.5048	-63.9588	174.243	30.5816	-41.3207	169.329	21.9181	-65.8524	164.561	-1.53641	-83.4331	195.018	24.2742	-46.425	184.957	13.7153	-66.0902	175.3	-7.2698	-77.6874	208.349	16.8735	-43.4228	200.644	7.28271	-58.8299	188.1	-13.8322	-63.2643	210.074	12.2695	3.84477	214.597	-4.94842	22.6812	187.883	0.368918	22.0067	
